<svg xmlns="http://www.w3.org/2000/svg" version="1.1" xmlns:xlink="http://www.w3.org/1999/xlink" xmlns:svgjs="http://svgjs.dev/svgjs" width="1000" height="676" viewBox="0 0 1000 676"><g transform="matrix(1,0,0,1,-0.26954177897579257,0.2736842105263122)"><svg viewBox="0 0 365 247" data-background-color="#1b4571" preserveAspectRatio="xMidYMid meet" height="676" width="1000" xmlns="http://www.w3.org/2000/svg" xmlns:xlink="http://www.w3.org/1999/xlink"><g id="tight-bounds" transform="matrix(1,0,0,1,0.09838274932616287,-0.09999999999999432)"><svg viewBox="0 0 364.8032345013477 247.2" height="247.2" width="364.8032345013477"><g><svg viewBox="0 0 364.8032345013477 247.2" height="247.2" width="364.8032345013477"><g><svg viewBox="0 0 364.8032345013477 247.2" height="247.2" width="364.8032345013477"><g id="textblocktransform"><svg viewBox="0 0 364.8032345013477 247.2" height="247.2" width="364.8032345013477" id="textblock"><g><svg viewBox="0 0 364.8032345013477 247.2" height="247.2" width="364.8032345013477"><g transform="matrix(1,0,0,1,0,0)"><svg width="364.8032345013477" viewBox="-11.3 -29.8 54.75 37.1" height="247.2" data-palette-color="#ffffff"><g class="wordmark-text-0" data-fill-palette-color="primary" id="text-0"><path d="M16.7-28.25L16.7-28.25Q15.85-26.15 14.25-22.05L14.25-22.05Q10.75-13.05 8.55-8.6L8.55-8.6Q10-10.4 13.05-13.7L13.05-13.7Q13.05-13.95 13.05-14.43 13.05-14.9 13.1-15.65L13.1-15.65Q13.25-16.2 13.6-16.48 13.95-16.75 14.2-15.95L14.2-15.95Q14.2-15.7 14.3-15.2L14.3-15.2 14.35-15.35Q15.6-16.75 22.65-22.65 29.7-28.55 31.05-29.18 32.4-29.8 33.33-29.8 34.25-29.8 34.6-29.38 34.95-28.95 34.95-28.53 34.95-28.1 34.52-27.73 34.1-27.35 33.48-27.05 32.85-26.75 29.58-24.9 26.3-23.05 23.6-21.25L23.6-21.25Q17.1-16.85 14.6-14.1L14.6-14.1Q15.75-9.95 16.9-7.55 18.05-5.15 20.53-2.13 23 0.9 25.05 0.9L25.05 0.9Q25.9 0.9 26.25 0.45 26.6 0 26.5-0.7L26.5-0.7Q26.2-2.1 25.6-2.98 25-3.85 25.48-3.85 25.95-3.85 26.38-3.43 26.8-3 27.18-2.18 27.55-1.35 27.55-0.75L27.55-0.75Q27.5 0.65 26.2 1.45 24.9 2.25 23.7 2.25L23.7 2.25Q21.45 2.25 19.6 0.93 17.75-0.4 16.5-2.7L16.5-2.7Q14.25-6.9 13.25-12.4L13.25-12.4Q7.65-5.85 5.55-2.95L5.55-2.95Q0.4 5.4-4.3 6.85L-4.3 6.85Q-5.65 7.3-6.65 7.3L-6.65 7.3Q-10.35 7.3-11.25 4.15L-11.25 4.15Q-11.3 3.95-11.3 3.73-11.3 3.5-11.23 3.18-11.15 2.85-10.9 2.95-10.65 3.05-10.4 3.9L-10.4 3.9Q-9.9 5.4-8.5 5.75L-8.5 5.75Q-7.4 5.95-6.58 5.95-5.75 5.95-5.15 5.75L-5.15 5.75Q0 4.1 4.85-4.75L4.85-4.75Q8.75-12.1 12.05-23.25L12.05-23.25Q9.4-20.9 5.55-20.5L5.55-20.5Q5.2-20.5 5.05-20.68 4.9-20.85 5.05-21.08 5.2-21.3 5.55-21.35L5.55-21.35Q7.7-21.55 10.03-23.58 12.35-25.6 13.5-28.25L13.5-28.25Q13.65-28.9 15.23-28.9 16.8-28.9 16.7-28.25ZM37.3-13.95L37.95-14Q41.8-14.35 42.62-14.35 43.45-14.35 43.45-14.1L43.45-14.1Q43.45-13.8 42.27-13.48 41.1-13.15 36.55-12.65L36.55-12.65Q36.3-12.2 35.95-11.6L35.95-11.6Q35.2-10.4 35.15-10.15L35.15-10.15Q32.3-4.45 32.15-2.9L32.15-2.9Q32.1-2.45 32.1-1.75 32.1-1.05 32.5-0.6L32.5-0.6Q33.2 0.2 34.5-0.5 35.8-1.2 38.12-3.3 40.45-5.4 41.9-7.4L41.9-7.4Q42.1-7.65 42.4-7.5L42.4-7.5Q43.15-7.15 39.8-3.55L39.8-3.55Q36.6-0.1 34.45 0.7L34.45 0.7Q33.2 1.15 32.35 1.15L32.35 1.15Q30.35 1.15 29.7-0.75L29.7-0.75Q29.6-1.1 29.6-1.6L29.6-1.6Q29.6-3.35 31.2-6.9L31.2-6.9Q30.95-6.35 29.25-4.4L29.25-4.4Q28.8-3.9 28.55-4.4L28.55-4.4Q28.5-4.5 28.5-4.67 28.5-4.85 28.7-5.1L28.7-5.1Q31.15-8.15 32.55-10.25L32.55-10.25Q32.55-10.3 33.65-12.35L33.65-12.35Q33.15-12.25 32.62-12.25 32.1-12.25 31.85-12.58 31.6-12.9 31.8-13.35L31.8-13.35Q32.15-14.15 34.45-14.25L34.45-14.25Q34.5-14.35 34.65-14.35L34.65-14.35 37.15-19Q37.35-19.4 37.6-19.83 37.85-20.25 37.97-20.48 38.1-20.7 38.25-20.95 38.4-21.2 38.5-21.3 38.6-21.4 38.7-21.5L38.7-21.5Q38.9-21.8 39.87-21.8 40.85-21.8 41.2-21.25L41.2-21.25Q41.35-21.05 41.35-20.58 41.35-20.1 41-19.53 40.65-18.95 40.25-18.7 39.85-18.45 39.7-18.15L39.7-18.15 37.3-13.95Z" fill="#ffffff" data-fill-palette-color="primary"></path></g></svg></g></svg></g></svg></g></svg></g></svg></g><defs></defs></svg><rect width="364.8032345013477" height="247.2" fill="none" stroke="none" visibility="hidden"></rect></g></svg></g></svg>